<?xml version="1.0" standalone="no"?><!DOCTYPE svg PUBLIC "-//W3C//DTD SVG 1.1//EN" "http://www.w3.org/Graphics/SVG/1.1/DTD/svg11.dtd"><svg class="icon" width="200px" height="197.11px" viewBox="0 0 1039 1024" version="1.1" xmlns="http://www.w3.org/2000/svg"><path d="M350.155021 833.178668c-35.155007 0-63.635025 28.637293-63.635026 63.99451 0 35.355175 28.480019 63.992468 63.635026 63.992468 35.160113 0 63.640132-28.637293 63.640132-63.992468 0-35.357217-28.446317-63.994511-63.640132-63.99451z m445.452327 0c-35.158071 0-63.636047 28.637293-63.636047 63.99451 0 35.355175 28.477976 63.992468 63.636047 63.992468 35.159092 0 63.635025-28.637293 63.635025-63.992468 0-35.357217-28.446317-63.994511-63.635025-63.99451z m135.514723-643.266261c-16.260582-18.468557-38.598713-28.485125-62.907885-28.485125H230.682329l-2.263124-13.025215c-5.567937-46.552325-46.326625-82.963488-92.778866-82.963488h-40.024398c-17.600482 0-31.820576 14.300775-31.820577 31.997256 0 17.693417 14.220095 31.994192 31.820577 31.994191h40.024398c13.841205 0 27.971429 12.672878 29.844429 28.255341l30.737014 178.479344 53.964667 382.084873c5.596532 46.553346 45.911992 83.125869 91.763728 83.125869h517.292196c17.595376 0 31.822619-14.30486 31.822619-31.997256 0-17.697502-14.228265-31.997255-31.822619-31.997255H341.950177c-13.55423 0-26.885824-12.60956-28.669973-27.452626l-5.281983-37.341535L812.817706 641.194114c45.817014 0 86.133495-36.507162 91.543136-81.36725l50.144114-288.328656c3.72149-30.813609-4.804031-60.503827-23.382885-81.585801z" fill="#ffffff" /></svg>