<?xml version="1.0" standalone="no"?><!DOCTYPE svg PUBLIC "-//W3C//DTD SVG 1.1//EN" "http://www.w3.org/Graphics/SVG/1.1/DTD/svg11.dtd"><svg class="icon" width="200px" height="200.00px" viewBox="0 0 1024 1024" version="1.1" xmlns="http://www.w3.org/2000/svg"><path d="M512 1024C229.248 1024 0 794.75712 0 512 0 229.22752 229.248 0 512 0c282.77248 0 512.02048 229.22752 512.02048 512 0 282.75712-229.248 512-512.02048 512m211.2-662.84544a42.61888 42.61888 0 0 0 0-60.32896 42.60864 42.60864 0 0 0-60.32896 0l-150.85056 150.84544-150.84544-150.85056a42.61888 42.61888 0 0 0-60.33408 0 42.61888 42.61888 0 0 0 0 60.32896L451.69152 512l-150.85056 150.85056a42.61376 42.61376 0 0 0 0 60.32384 42.60864 42.60864 0 0 0 60.33408 0l150.84544-150.84544 150.85056 150.84544a42.5984 42.5984 0 0 0 60.32896 0 42.61376 42.61376 0 0 0 0-60.32384L572.35456 512l150.84544-150.84544z" fill="#2c2c2c" /></svg>