<?xml version="1.0" standalone="no"?><!DOCTYPE svg PUBLIC "-//W3C//DTD SVG 1.1//EN" "http://www.w3.org/Graphics/SVG/1.1/DTD/svg11.dtd"><svg class="icon" width="200px" height="200.00px" viewBox="0 0 1024 1024" version="1.1" xmlns="http://www.w3.org/2000/svg"><path d="M735.850496 650.774528l-20.7104 13.179904c15.331328 19.6352 27.435008 37.655552 36.31104 54.063104l21.249024-15.062016C764.092416 688.160768 751.988736 670.678016 735.850496 650.774528zM684.208128 658.843648l-23.938048 5.110784c7.53152 15.331328 13.986816 33.083392 19.096576 53.525504l25.283584-5.917696C698.732544 692.733952 692.00896 674.981888 684.208128 658.843648zM628.5312 662.608896l-23.938048 4.841472c5.110784 14.524416 9.413632 31.200256 12.910592 50.566144l25.551872-5.917696C638.752768 694.347776 633.911296 677.940224 628.5312 662.608896zM563.97824 655.077376c-9.145344 18.828288-20.1728 34.966528-32.81408 48.41472l20.979712 15.331328c12.64128-15.062016 23.66976-32.81408 33.352704-53.256192L563.97824 655.077376zM536.274944 500.419584l0 24.74496 36.041728 0 0 41.152512c-13.986816 2.958336-28.511232 5.379072-43.035648 7.262208l5.917696 23.938048c12.64128-2.151424 25.014272-4.841472 37.117952-7.53152l0 26.090496c0 6.455296-2.690048 9.952256-8.06912 9.952256-7.262208 0-14.793728-0.806912-22.593536-1.883136l5.917696 24.476672 25.551872 0c16.407552 0 24.74496-8.876032 24.74496-26.358784l0-38.462464c9.682944-2.420736 19.096576-5.110784 28.77952-7.799808l0-24.476672c-9.413632 3.227648-19.096576 5.917696-28.77952 8.60672l0-34.966528L628.5312 525.164544l0-24.74496-30.662656 0 0-32.007168-25.551872 0 0 32.007168L536.274944 500.419584 536.274944 500.419584zM760.864768 648.353792c4.841472 0 8.60672-2.420736 11.834368-7.262208 4.303872-6.724608 7.262208-21.786624 8.60672-45.456384l-19.365888-9.682944c-0.269312 10.220544-0.806912 18.828288-1.883136 26.090496-1.344512 7.262208-2.690048 11.027456-4.03456 11.027456-1.613824 0-3.227648-2.690048-4.841472-7.53152-4.303872-11.027456-6.185984-30.931968-6.185984-59.9808l0-54.063104L690.1248 501.494784l0-33.083392-25.014272 0 0 33.083392L636.60032 501.494784l0 25.014272 28.511232 0c-0.5376 12.910592-1.883136 25.014272-4.03456 36.31104-5.648384-3.765248-11.296768-7.53152-17.214464-10.759168l-13.717504 19.903488c7.799808 4.303872 15.60064 9.413632 23.66976 15.331328-7.799808 19.365888-19.6352 34.966528-35.504128 47.070208l18.828288 16.67584c15.868928-12.372992 28.24192-28.24192 37.117952-47.338496 9.145344 7.53152 18.289664 15.868928 27.435008 25.551872l14.524416-21.786624c-10.489856-10.489856-21.517312-20.1728-33.083392-28.77952 4.03456-15.60064 6.455296-32.81408 6.992896-52.179968l29.855744 0 0 29.048832c0 40.8832 5.648384 67.780608 16.945152 80.960512C743.382016 644.04992 751.181824 648.08448 760.864768 648.353792zM449.128448 660.995072c-9.952256-10.220544-16.945152-21.786624-21.249024-34.159616l40.3456 0C464.190464 639.208448 457.735168 650.505216 449.128448 660.995072zM405.823488 626.835456c4.841472 17.752064 13.986816 34.159616 27.70432 49.221632-10.759168 8.60672-23.66976 15.868928-39.001088 22.324224l13.179904 19.6352c16.407552-6.992896 30.662656-15.60064 43.035648-25.821184 11.834368 9.413632 25.821184 18.021376 42.497024 25.821184l13.179904-21.249024c-15.331328-6.185984-28.511232-13.179904-39.538688-20.979712 11.56608-14.255104 19.6352-30.931968 24.20736-50.297856l0-19.365888L397.48608 606.124032l0 20.7104L405.823488 626.835456 405.823488 626.835456zM323.250176 509.026304l0-13.448192 126.954496 0 0 13.448192L323.250176 509.026304zM450.203648 540.765184 323.250176 540.765184 323.250176 526.51008l126.954496 0 0 14.255104L450.203648 540.765184zM298.773504 477.019136l0 81.498112 175.906816 0 0-81.498112L298.773504 477.019136zM313.83552 608.27648l0-15.868928 47.87712 0 0 15.868928L313.83552 608.27648zM313.83552 642.973696l0-16.407552 47.87712 0 0 16.407552L313.83552 642.973696zM313.83552 679.82336l0-18.558976 47.87712 0 0 14.524416C347.188224 677.402624 331.319296 678.747136 313.83552 679.82336zM267.034624 571.96544l0 20.442112 23.400448 0 0 88.76032-23.131136 1.076224 3.227648 21.517312c36.31104-2.420736 66.704384-5.110784 91.181056-8.06912l0 22.055936 24.476672 0 0-25.283584c5.110784-1.076224 9.952256-1.883136 14.255104-2.690048l0-19.6352-14.255104 2.420736 0-80.1536 119.153664 0L505.342976 571.96544 267.034624 571.96544zM688.512 353.024 624.49664 353.024l0-26.628096 64.01536 0L688.512 353.024zM600.020992 305.14688l0 69.663744 112.96768 0 0-69.663744L600.020992 305.14688zM761.67168 175.234048 554.295296 175.234048l0 108.663808c-0.5376 45.724672-8.06912 83.381248-22.593536 113.236992l19.365888 17.482752c18.828288-33.890304 28.24192-78.270464 28.77952-132.871168l0-83.111936L736.38912 198.634496l0 181.824512c0 6.455296-3.49696 9.682944-10.220544 9.682944-10.220544 0-21.249024-0.5376-33.083392-1.344512l6.724608 24.20736 34.159616 0c18.289664 0 27.70432-8.06912 27.70432-23.66976L761.673728 175.234048 761.67168 175.234048zM645.476352 205.089792l0 18.828288L599.21408 223.91808l0 20.979712 46.263296 0 0 21.786624-53.793792 0 0 22.324224 132.333568 0 0-22.324224-53.793792 0 0-21.786624 45.456384 0L715.679744 223.91808l-45.456384 0 0-18.828288L645.476352 205.089792zM264.076288 275.291136l0 25.283584L507.4944 300.57472l0-25.283584L264.076288 275.291136zM116.948992 0l790.100992 0 0 975.0784c0 37.103616-28.41088 57.495552-63.690752 45.466624L512 907.565056 180.640768 1020.545024c-35.175424 11.993088-63.690752-8.352768-63.690752-45.466624L116.948992 0 116.948992 0z" /></svg>