<?xml version="1.0" standalone="no"?><!DOCTYPE svg PUBLIC "-//W3C//DTD SVG 1.1//EN" "http://www.w3.org/Graphics/SVG/1.1/DTD/svg11.dtd"><svg class="icon" width="200px" height="200.00px" viewBox="0 0 1024 1024" version="1.1" xmlns="http://www.w3.org/2000/svg"><path d="M520.15882 981.686289C266.311345 981.99942 59.882855 775.639492 59.81941 521.500375 59.754942 267.773649 266.142499 61.407582 519.945973 61.422931c254.019391 0.014326 459.997626 205.771527 460.223776 459.729519C980.394876 775.064394 774.321474 981.372134 520.15882 981.686289zM497.006518 544.105209c0 46.466288 0 92.092441 0 137.959072 15.546068 0 30.466895 0 46.004777 0 0-46.003753 0-91.632977 0-137.900743 46.236044 0 91.857081 0 137.578402 0 0-15.569604 0-30.492478 0-46.038546-46.054919 0-91.685165 0-137.939629 0 0-46.248324 0-91.871407 0-137.433092-15.549138 0-30.462802 0-45.992497 0 0 46.109154 0 91.738377 0 138.01126-46.239114 0-91.854011 0-137.471978 0 0 15.427364 0 30.201859 0 45.402049C405.000034 544.105209 450.483948 544.105209 497.006518 544.105209z" fill="#d81e06" /></svg>