<?xml version="1.0" standalone="no"?><!DOCTYPE svg PUBLIC "-//W3C//DTD SVG 1.1//EN" "http://www.w3.org/Graphics/SVG/1.1/DTD/svg11.dtd"><svg class="icon" width="200px" height="155.74px" viewBox="0 0 1315 1024" version="1.1" xmlns="http://www.w3.org/2000/svg"><path d="M978.989648 839.65496a489.442557 489.442557 0 0 1-605.87782 70.759138l-7.641469-4.748935 35.832877-20.852144 2.676673 1.597369a455.120705 455.120705 0 0 0 682.637885-394.161642v-3.065222l35.832877-20.852144 0.21586 9.066149a487.845187 487.845187 0 0 1-143.720055 362.257431z m-61.952022-57.634807l-26.119145 20.549938-5.05114-33.242548-25.644252-18.779881 28.364097-15.801003 9.88642-32.120073 22.881234 23.053923 32.206417-0.690754-14.678528 30.220498 9.800076 31.170286z m-162.802142 99.295923l-32.379105 8.289051 8.375395-32.379106-16.362241-27.716514 32.379105-3.324255 22.104136-25.126185 11.829167 30.004637 30.220498 11.915511-25.428391 21.931447-3.324254 32.379106z m270.516633-255.665416l-18.650365 27.198448-15.023905-30.220498-30.220498-10.015937 22.363169-23.701505-0.302205-33.501581 28.838989 15.023905 30.479532-10.577174-4.748936 33.069859 18.650365 26.680383-31.25663 5.526034z m221.818457-248.369324a57.418947 57.418947 0 0 1-11.656477 8.936633L238.155717 961.832118A56.382815 56.382815 0 0 1 160.920758 941.152662L7.530143 675.125933a56.598676 56.598676 0 0 1 20.679455-77.148615L1024.967977 22.19048a56.123783 56.123783 0 0 1 77.23496 20.7658l153.476959 265.854041a56.46916 56.46916 0 0 1-8.979805 68.211982z m-1195.868291 250.91648a33.06986 33.06986 0 0 0-5.310173 39.804714l140.698006 243.749905a32.940343 32.940343 0 0 0 44.98537 12.088199L1205.859246 361.264472a33.156204 33.156204 0 0 0 12.088199-44.985371L1077.292612 72.529196a32.940343 32.940343 0 0 0-44.985371-12.174544L57.566654 623.103504a32.0769 32.0769 0 0 0-6.778027 5.137484z m810.902315 93.942578a327.028964 327.028964 0 0 1-308.421772 85.52401l-12.951642-3.151566 47.100805-27.068932 1.899575 0.259033a288.433071 288.433071 0 0 0 311.314305-179.725621l0.777098-1.81323 46.884945-26.853072-3.712804 12.951643a327.115308 327.115308 0 0 1-82.67465 140.007251z m-285.756398 174.026898l-21.154349 24.478604-13.253847-28.83899-31.342974-11.354273 25.255702-21.58607 1.985919-31.817868 28.579957 15.628315 32.379105-8.289051-7.123403 31.429318 18.175471 26.939416z m286.058603-796.612336l-2.763017-1.597369a455.163877 455.163877 0 0 0-682.637885 393.988954v3.151566l-35.789705 20.679455-0.215861-9.066149A491.557991 491.557991 0 0 1 890.098211 73.997049l7.641468 4.748935z m-185.640204 107.369113l-1.81323-0.259033A289.857751 289.857751 0 0 0 362.836859 386.390657l-0.690754 1.726886-46.798601 26.939416 3.712804-12.951643a325.517939 325.517939 0 0 1 391.139593-225.660778l12.951642 3.151566-46.884944 27.155277z m21.888275-64.75821l-31.817868 10.663518 4.878452-31.904212-19.902356-25.514735 33.156203-6.173616 19.600152-25.903284 15.32611 27.889203 32.379105 9.238838-23.831021 23.615161v31.817867z m-147.001138-1.036132l-22.363169 25.039842-11.829167-30.220499-30.220498-11.829166 25.514735-21.931447 3.453771-32.46545 27.500654 16.275897 32.508622-8.634428-8.634429 32.594966 16.362242 27.414309zM266.994707 398.694717l-30.565875 10.663519 4.878451-33.415237-18.693536-26.853071 31.342974-5.785067 19.254774-27.543826 14.764872 30.220499 30.220499 10.274969-22.492686 23.701505v33.933303zM365.68622 233.733969l-32.206417 0.863442 14.678528-30.220498-9.713732-31.083941 31.558835 4.317214 26.464522-20.549939 5.223829 32.940343 25.644252 18.693537-28.493613 16.016864-10.102281 32.249589z m453.696024 185.942409" fill="#d81e06" /><path d="M187.860173 619.60656l168.716725-99.080062 43.690207 74.42877a22.276824 22.276824 0 0 1-7.770986 30.436359l-100.591087 59.059488 41.099878 69.938868 130.984274-76.932755 9.066149 15.412455-179.078038 105.167334-79.048189-134.610734 48.050592-28.191408 19.902357 33.846958 63.851595-37.51659a8.936633 8.936633 0 0 0 3.194739-12.217716l-32.508622-55.346684-120.666133 70.802311zM733.858234 462.28728a22.319997 22.319997 0 0 1-7.943674 30.479531l-47.230321 27.759687 23.917365 40.7545-48.266453 28.320925-23.831021-40.711329-66.528269 38.854926-64.75821-110.520679 66.528268-38.854927-24.176399-40.581812 48.266453-28.320924 23.917366 40.754501 66.528269-38.854927z m-130.941102 82.027067l18.434504-10.836207-46.971289-79.566255-18.434504 10.836207z m38.552721-129.818626l-18.650364 10.965723 46.7986 79.695772 12.951642-7.511953a6.821198 6.821198 0 0 0 2.41764-9.325182zM794.817296 307.903706l-28.623129-36.653147 30.220499-17.74375 28.795817 36.350942z m33.976475-11.785994l28.709473 61.390783-30.220498 17.74375-28.882162-61.304439z m38.854926 55.4762l-63.117669-107.49863 37.300729-21.888275 63.11767 107.455458z m-32.897171 35.962393l69.550319-40.840845-5.353346-9.368354 51.806569-30.479531 5.353345 9.109321 69.766179-40.970361 9.06615 15.412454-56.382816 33.113032 74.644631 12.951642 6.475821-3.799148 8.116363 13.771912-50.42506 29.745605-67.391712-11.09524-22.665373 64.024284-50.727265 29.745605-8.030019-13.599224 6.691682-3.928665 24.694465-71.234032-56.123783 32.983516z m57.246259-123.083772l-15.023905 8.634428-12.951642-64.153801 35.487499-20.852144 2.288124 11.742822 59.620726-35.012606 22.751718 96.791939a23.917366 23.917366 0 0 1-10.663519 26.42135l-56.771365 33.328893-10.102281-17.268856 33.242548-19.513808a11.526962 11.526962 0 0 0 5.137485-12.951642l-0.561238-2.374468-28.579957 16.793963z m26.809899-27.716515l23.140267 21.327038-11.785994-51.158987-24.133227 14.160462 4.317214 20.679456z" fill="#d81e06" /></svg>