<?xml version="1.0" standalone="no"?><!DOCTYPE svg PUBLIC "-//W3C//DTD SVG 1.1//EN" "http://www.w3.org/Graphics/SVG/1.1/DTD/svg11.dtd"><svg class="icon" width="200px" height="199.61px" viewBox="0 0 1026 1024" version="1.1" xmlns="http://www.w3.org/2000/svg"><path d="M811.456 234.112l36.864 0c2.688 0 9.792 3.392 11.52 5.632l161.92 203.392c1.024 1.216 3.264 7.552 3.264 9.216l0 248.448c0 12.672-5.184 24.256-13.568 32.704-8.448 8.384-19.968 13.568-32.768 13.568l-56.128 0c-6.912 57.28-54.144 101.44-111.104 105.344l0-29.696c46.016-4.16 82.432-43.264 82.432-90.304 0-47.168-36.352-86.016-82.432-90.176L811.456 612.352c56.896 3.968 103.936 47.936 111.04 104.96l56.192 0c4.672 0 8.832-1.792 11.84-4.8 2.944-3.072 4.864-7.168 4.864-11.84L995.392 520.704l-183.936 0L811.456 491.072l183.936 0L995.392 457.344l-82.24-103.424-101.696 0L811.456 324.352l78.08 0-48.384-60.672-29.696 0L811.456 234.112 811.456 234.112zM333.312 78.784c18.368 10.24 35.136 22.976 49.856 37.696l0 0C390.4 123.712 397.056 131.328 403.264 139.392l164.736 0c16.32 0 31.296 6.72 41.984 17.408l0 0.064c10.88 10.816 17.472 25.6 17.472 41.984l0 35.2 184 0 0 29.632L627.456 263.68l0 453.632 56.576 0c7.424-59.712 58.816-105.216 119.296-105.216 2.688 0 5.312 0.064 8.128 0.192l0 29.824c-2.752-0.32-5.44-0.512-8.128-0.512-49.728 0-90.624 40.896-90.624 90.624 0 49.856 40.768 90.624 90.624 90.624 2.688 0 5.376-0.064 8.128-0.384l0 29.76c-2.816 0.128-5.44 0.256-8.128 0.256-60.48 0-112.064-45.824-119.424-105.536L384.128 746.944c-4.288 34.944-23.488 65.024-50.816 84.032l0-39.488c13.696-15.872 22.08-36.544 22.08-59.2 0-22.528-8.32-43.2-22.08-59.136L333.312 633.728C360.512 652.672 379.712 682.56 384 717.312l213.76 0 0-518.4c0-8.256-3.392-15.68-8.832-21.12l0 0.064C583.616 172.352 576.128 169.088 568 169.088L422.4 169.088C439.36 200.704 449.088 236.864 449.088 275.2c0 61.824-25.216 118.016-65.856 158.656-14.72 14.784-31.552 27.52-49.856 37.76L333.376 436.8c10.368-7.04 20.096-14.976 28.928-23.936C397.568 377.6 419.456 328.832 419.456 275.2c0-53.696-21.824-102.4-57.216-137.728L362.24 137.344c-8.832-8.832-18.56-16.832-28.928-23.936L333.312 78.784 333.312 78.784 333.312 78.784zM811.456 324.416l-34.816 0c-26.176 0-47.68 21.504-47.68 47.68l0 101.312c0 25.856 21.44 47.296 47.168 47.296l35.328 0L811.456 491.072l-35.328 0c-9.472 0-17.536-7.936-17.536-17.6L758.592 372.096c0-9.856 8.32-18.112 18.112-18.112l34.752 0L811.456 324.416 811.456 324.416zM224.576 50.624c39.36 0 76.48 10.24 108.736 28.224l0 34.624c-31.104-20.928-68.48-33.216-108.736-33.216-12.16 0-24.128 1.088-35.712 3.264l0-30.08C200.512 51.584 212.416 50.624 224.576 50.624L224.576 50.624 224.576 50.624zM333.312 830.976c-19.584 13.632-43.2 21.632-68.544 21.632-28.608 0-55.04-10.112-75.84-27.136l0-43.776c16.192 24.832 44.16 41.28 75.84 41.28 27.328 0 51.904-12.16 68.544-31.488L333.312 830.976 333.312 830.976zM333.312 436.8l0 34.688c-32.256 17.984-69.312 28.16-108.736 28.16-12.16 0-24.064-0.96-35.712-2.816l0-30.08c11.52 2.176 23.488 3.328 35.712 3.328C264.768 470.08 302.208 457.728 333.312 436.8L333.312 436.8 333.312 436.8zM333.312 633.728l0 39.488c-16.64-19.328-41.216-31.552-68.544-31.552-31.616 0-59.648 16.576-75.84 41.408L188.928 639.296c20.8-17.024 47.296-27.136 75.84-27.136C290.112 612.16 313.728 620.16 333.312 633.728L333.312 633.728 333.312 633.728zM188.928 324.416 188.928 285.696l20.8-17.472L209.728 140.288c0-21.184 29.632-21.184 29.632 0l0 134.848c0 2.624-3.2 9.6-5.248 11.392L188.928 324.416 188.928 324.416zM188.928 825.472c-23.424-19.136-39.552-46.784-43.456-78.528L98.688 746.944c-32.704 0-59.456-26.88-59.456-59.584L39.232 401.6C14.528 365.568 0 321.984 0 275.136c0-61.824 25.216-118.016 65.856-158.72C98.56 83.84 141.312 61.056 188.928 53.376l0 30.144C149.44 90.816 114.112 110.144 86.784 137.408 51.52 172.736 29.632 221.504 29.632 275.136s21.824 102.4 57.216 137.664L86.72 412.8c27.328 27.328 62.656 46.592 102.144 53.888l0 30.016C142.656 489.408 101.12 467.776 68.8 436.544l0 250.88c0 16.448 13.376 29.888 29.824 29.888l46.848 0c3.968-31.488 20.096-59.072 43.392-78.08l0 43.904c-9.344 14.144-14.72 31.04-14.72 49.216 0 18.24 5.376 35.264 14.72 49.408L188.928 825.472 188.928 825.472 188.928 825.472zM188.928 285.696 165.504 305.344 144.576 322.944C128.448 336.512 147.648 359.168 163.712 345.6l25.216-21.184L188.928 285.696 188.928 285.696zM188.928 285.696" fill="#d81e06" /></svg>