<?xml version="1.0" standalone="no"?><!DOCTYPE svg PUBLIC "-//W3C//DTD SVG 1.1//EN" "http://www.w3.org/Graphics/SVG/1.1/DTD/svg11.dtd"><svg class="icon" width="200px" height="200.00px" viewBox="0 0 1024 1024" version="1.1" xmlns="http://www.w3.org/2000/svg"><path d="M211.202 205.117zM211.202 205.117s54.875-36.001 59.614-39.107 70.954-46.564 70.954-46.564M211.202 205.117s56.779-37.244 59.614-39.107 70.954-46.564 70.954-46.564M498.162 58.355c129.751-0.388 247.425 51.885 332.709 136.665s138.257 202.142 138.606 331.893c0.156 54.254-8.894 106.411-25.67 154.956l-17.71 2.602c17.982-49.089 27.729-102.14 27.574-157.481-0.349-125.403-51.536-238.803-133.946-320.748s-196.123-132.432-321.524-132.081-238.803 51.536-320.748 133.946-132.432 196.123-132.081 321.524c0.31 101.324 33.748 194.764 90.022 270.144l-17.71 2.602c-55.186-76.78-87.808-170.918-88.119-272.669-0.388-129.751 51.885-247.425 136.665-332.709 84.818-85.284 202.142-138.257 331.933-138.606zM736.926 261.663c0.078-4.311-1.437-8.544-3.728-12.31-6.679-10.912-19.922-20.933-32.545-23.769-3.962-0.893-15.534-2.835-12.738 4.816 1.632 4.427 4.971 7.922 8.66 10.797 11.263 8.7 25.709 16.738 40.351 20.505zM754.054 223.447c10.485 2.291 19.963 18.059 17.67 28.311-3.534 15.962-18.331 17.282-32.273 14.407-0.816 1.67-2.019 3.262-3.572 4.66-8.622 7.922-19.147 6.213-29.36 2.214-12.31-4.816-23.418-13.243-34.254-20.7-5.71-3.884-11.612-8.582-18.447-10.291-3.223-0.816-6.757-1.243-10.019-0.388-6.331 1.591-7.185 6.679-7.263 11.845 0 0.116-0.427 0.466-0.427 0.349-1.088-6.913 2.214-12.778 9.282-14.369 12.893-2.951 21.788 3.185 32.389 9.67 12.078 7.378 23.69 16.738 37.477 20.816 5.669 1.67 18.059 4.738 20.738-3.069 0.156-0.466 0.272-0.971 0.427-1.437-5.71-1.437-11.069-3.418-15.262-5.281-8.894-3.922-17.632-8.622-25.398-14.525-5.204-3.922-14.097-11.301-10.33-18.603s14.99-6.796 21.398-4.544c11.807 4.194 24.079 11.69 30.369 22.835 3.028 5.359 4.777 11.535 3.534 17.127 3.457 0.699 6.913 1.165 10.33 1.281 4.311 0.194 9.476 0.038 13.088-2.641 5.71-4.194 4.777-13.36 2.059-18.991-2.214-4.622-5.71-10.098-10.291-12.778-2.718-1.553-11.495-7.106-11.962 0.66-0.272 4.66 2.097 6.875 6.447 7.845 0.466 0.116-0.893 1.787-1.475 1.709-6.292-0.893-9.244-5.825-6.603-11.728 2.097-4.66 7.223-5.398 11.651-4.388zM192.057 336.345c2.913-12.428 12.35-26.098 23.418-32.779 3.495-2.097 13.865-7.573 13.593 0.544-0.156 4.738-2.253 9.087-4.854 12.972-7.961 11.807-19.223 23.962-31.884 32.117-1.398-4.039-1.321-8.582-0.31-12.854zM156.172 350.714c-5.359-9.010-1.321-26.953 7.922-32.428 3.884-2.291 8.972-3.185 12.428 0.544 4.388 4.777 3.107 10.37-2.563 13.204-0.544 0.234-2.369-0.893-1.942-1.165 3.844-2.291 5.398-5.126 3.69-9.476-2.874-7.223-9.476 0.816-11.573 3.146-3.495 3.962-5.087 10.253-5.748 15.341-0.816 6.175 1.165 15.185 7.884 17.398 4.272 1.398 9.244-0.078 13.282-1.591 3.185-1.204 6.331-2.718 9.398-4.466-2.951-4.932-3.185-11.34-2.019-17.36 2.486-12.622 11.807-23.573 21.67-31.225 5.359-4.155 15.885-8.156 21.748-2.407 5.865 5.787-0.272 15.534-4 20.894-5.515 8.039-12.35 15.223-19.573 21.748-3.418 3.069-7.884 6.679-12.854 9.787 0.272 0.427 0.544 0.854 0.854 1.243 5.010 6.564 15.806-0.234 20.661-3.612 11.807-8.194 19.884-20.738 29.050-31.535 8.039-9.476 14.563-18.097 27.729-19.34 7.223-0.699 12.195 3.884 13.322 10.757 0 0.116-0.506-0.078-0.544-0.194-1.709-4.854-4.116-9.437-10.642-8.972-3.379 0.272-6.603 1.747-9.398 3.534-5.941 3.728-10.098 10.019-14.291 15.534-7.922 10.485-15.844 21.903-26.020 30.369-8.466 6.991-17.903 11.884-28.583 7.106-1.942-0.893-3.534-1.981-4.854-3.3-12.31 7.068-26.758 10.485-35.147-3.572zM124.87 294.595c-2.059 8.428-12.31 22.253-15.185 26.758 23.613 18.020-8.272 3.146-26.758 52.585 26.331 21.204-24.31-0.234-4.777 91.731 2.174 0.388 76.39-162.335 73.827-179.229-18.447 2.563-10.991 5.669-27.107 8.156zM867.687 304.886c9.165 0.932 7.612 3.651 12.582 12.234l9.787 16.039c10.213 26.563 15.107 15.729 18.564 30.369l-8.311 3.884-19.029-27.495c-2.563-3.3-3.962-3.728-6.796-6.757-2.446-15.302-0.272-14.875-8.505-23.613l1.709-4.66zM857.125 298.828c1.088 1.67 2.253 2.99 3.962 7.147l6.603-1.049c1.281-3.495 0.699-2.486 1.126-6.951-5.553-5.981-4.039-1.437-5.865-9.049l-5.825 9.942zM70.576 519.69l8.738-1.825c1.825-5.71 3.185-6.913-3.107-9.359-5.941-2.291-7.534-0.506-8.233 6.213l2.602 4.971zM583.99 194.32c-0.156-0.506-0.544-0.816-0.971-0.816-0.544-0.038-0.971 0.156-1.165 0.66l-7.534 18.331c-0.116 0.388-0.544 0.738-1.049 0.699-6.641-0.427-13.282-0.738-19.922-0.932-0.506 0-0.932 0.31-1.088 0.816-0.194 0.427-0.038 0.893 0.388 1.243 5.281 4 10.409 8 15.418 12.117 0.388 0.272 0.544 0.778 0.349 1.281l-6.796 18.409c-0.156 0.506-0.038 0.893 0.349 1.243 0.388 0.272 0.854 0.272 1.165 0.078 5.204-3.651 10.563-7.185 16.001-10.681 0.349-0.31 0.893-0.272 1.204 0.116 4.894 4.234 9.631 8.582 14.253 12.932 0.272 0.31 0.816 0.349 1.165 0.156 0.427-0.272 0.621-0.66 0.506-1.204l-3.962-19.185c-0.078-0.506 0.116-0.971 0.544-1.204 5.593-3.34 11.301-6.524 17.088-9.709 0.427-0.272 0.699-0.738 0.544-1.165-0.078-0.506-0.466-0.893-0.893-0.932-6.603-0.816-13.243-1.475-19.922-2.059-0.506-0.038-0.893-0.427-0.932-0.854l-4.738-19.263zM316.41 237.35c-0.038-0.506 0.272-0.932 0.738-1.126s0.971-0.116 1.243 0.31l12.932 15.030c0.31 0.31 0.816 0.466 1.281 0.272 6.175-2.486 12.389-4.854 18.641-7.147 0.466-0.156 0.971 0.038 1.243 0.427 0.31 0.349 0.31 0.854 0.116 1.281-3.767 5.438-7.418 10.874-10.953 16.388-0.31 0.388-0.272 0.893 0.078 1.321l12.234 15.341c0.31 0.427 0.31 0.854 0.078 1.321-0.234 0.349-0.621 0.506-1.088 0.427-6.097-1.863-12.234-3.534-18.485-5.166-0.506-0.156-0.932 0.038-1.204 0.506-3.262 5.553-6.369 11.146-9.398 16.738-0.272 0.388-0.699 0.582-1.126 0.544-0.506-0.156-0.778-0.466-0.854-0.971l-2.174-19.535c-0.156-0.506-0.506-0.854-0.893-0.971-6.369-1.398-12.816-2.641-19.34-3.806-0.506-0.116-0.893-0.466-0.893-0.932-0.078-0.506 0.156-1.009 0.621-1.204 5.981-2.835 12.078-5.553 18.175-8.194 0.466-0.194 0.699-0.66 0.699-1.126l-1.591-19.729zM400.101 492.699l32.389 14.291c-13.942 19.301-0.272 23.107 40.894 11.495l6.834 42.448c-23.923 0.854-59.263 5.049-106.139 12.582-5.865 0.932-10.253 1.632-13.204 2.097-13.67 2.214-22.175 8.582-25.476 19.108-3.3 4.583-6.875 7.147-10.797 7.767-3.884 0.621-8.7-1.088-14.369-5.204-9.244-7.573-24.079-9.67-44.583-6.369-27.379 4.388-62.758 11.573-106.256 21.554l-6.603-41.011c22.914-0.66 37.439-3.534 43.729-8.505 5.087-5.825 0.544-12.156-13.554-18.836l23.769-20.35c-7.65 2.214-22.175 5.553-43.535 10.019-13.476 3.146-23.225 5.204-29.011 6.137l-7.068-43.963c55.614-8.932 89.517-12.932 117.829-11.456 10.602 0.272 19.767 7.573 21.554 12.272 0.778 4.932-3.107 8.854-15.341 13.825-6.641 2.097-17.67 5.359-33.010 9.787 16.467 21.398 52.778 29.088 108.935 23.069 35.263-4.66 59.614-21.554 72.933-50.758zM440.529 379.491l7.068 43.924c-46.37 4.427-81.284 8.505-104.741 12.272-16.388 3.651-25.088 9.087-25.904 16.234 3.185 7.495 13.709 10.291 31.457 8.466 43.108-5.903 83.498-13.437 121.091-22.486l7.301 45.438c-36.933 0.854-87.615 6.524-152.082 16.894-31.419 4.078-49.322 1.475-53.827-7.806-0.778-4.932 1.437-9.787 6.641-14.603 6.252-5.049 8.816-10.447 7.884-16.35-0.272-7.961-16.506-9.593-26.992-9.204s-28.195 2.019-51.497 6.796c-22.486 3.612-40.39 7.534-53.789 11.651l-6.834-42.526c37.594-3.028 77.595-8.816 101.634-13.322 24-4.505 22.719-14.097 21.127-27.419l39.574-6.369c0.272 14.019 10.213 19.922 29.904 17.748 41.011-6.603 75.031-13.088 102.022-19.419zM493.463 596.353l7.767 48.389c-17.942 0.816-44.507 3.612-79.847 8.272-9.903 0.621-17.787 1.398-23.651 2.331-25.554 3.069-37.981 13.088-37.244 30.020 3.457 21.516 6.447 34.060 9.049 37.594l-52.739 8.466c1.36-10.213 0.778-23.146-1.747-38.758-2.99-12.544-18.836-17.476-47.497-14.951-18.564 2.99-53.943 10.213-106.218 21.631l-7.767-48.389c26.020-0.156 72.119-6.603 138.178-19.185 8.66-2.369 14.563-5.865 17.865-10.37 4.777-7.767 9.593-12.078 14.486-12.854 3.884-0.621 9.321 2.019 16.272 7.884 4.894 5.243 12.234 7.534 22.137 6.951 63.341-11.225 106.993-20.194 130.956-27.069zM547.834 345.703c24.428 15.107 50.176 38.021 77.168 68.701l-31.185 30.603c-27.457-27.651-52.467-49.205-74.954-64.585l28.972-34.719zM828.037 312.655l8 49.827c-21.981 0.506-52.041 3.884-90.099 9.981-38.060 6.137-71.458 13.476-100.119 22.137l-8.233-51.341c69.012-7.029 132.47-17.243 190.452-30.603zM862.911 398.753c-48.351 10.797-87.187 18.485-116.509 23.225-1.942 0.31-6.369 1.009-13.204 2.135-49.671 9.010-81.983 13.67-96.935 14.097l7.534 46.876c9.282-4.505 27.107-8.854 53.517-13.088 7.806-1.243 14.448 5.71 19.884 20.855 2.874 5.515 8.466 6.137 16.855 1.787 14.407-22.409 26.603-33.826 36.506-34.409 46.719-8.544 80.003-13.36 99.887-14.563l-7.534-46.876zM527.483 481.202c6.059 0.038 17.787-1.825 35.186-5.669 23.457-3.767 39.225-5.281 47.342-4.622 15.767-1.515 22.409 5.438 19.884 20.855-1.981 6.369-8 18.875-18.020 37.439-3.3 4.583-6.679 5.126-10.253 1.632-5.669-10.137-13.398-14.835-23.341-14.253-7.961 0.272-22.486 3.612-43.535 10.019l-7.301-45.438zM826.406 470.717l-33.554 15.923c10.019 18.447 8.544 31.185-4.388 38.253-11.495 2.874-26.641 5.321-45.361 7.301-9.747 1.553-14.407-2.174-13.865-11.301 0.078-5.981-2.563-10.098-7.922-12.272-4.234-1.321-7.534 0.234-9.826 4.583-4.854 6.796-11.923 15.962-21.127 27.457-6.719 8.117-18.719 17.554-36.041 28.35l20.078 31.341c41.399-16.66 87.498-29.050 138.295-37.205 15.767-1.591 26.953 5.669 33.477 21.593l37.439-19.535c-15.457-21.554-34.564-53.050-57.245-94.487zM599.058 552.351c2.135-5.359 5.204-7.845 9.321-7.457 4.039 0.31 6.485 2.913 7.263 7.806 6.252 20.039 13.593 37.904 22.137 53.555 1.088 0.854 2.331 2.135 3.651 3.922 10.953 12.272 15.146 19.612 12.506 22.020-2.446 3.418-7.029 6.137-13.67 8.233-16.311 4.622-31.495 22.137-45.671 52.429l-43.729-29.011c22.175-17.632 36.234-36.428 42.020-56.39 1.009-12.156 2.407-25.398 4.116-39.729 0.816-7.185 1.475-12.31 2.019-15.379zM671.605 620.391c-12.389 4-15.030 9.398-7.884 16.272 16.66 10.33 41.438 14.875 74.332 13.554 18.214 1.126 63.885-4.738 136.937-17.438 13.67-2.214 23.923-3.844 30.798-4.971l-7.767-48.389c-31.457 10.059-71.497 19.495-120.237 28.35-46.876 7.534-82.255 11.69-106.139 12.582zM393.46 182.786c-1.321 0.234-2.563-0.699-2.757-2.019s0.699-2.563 2.019-2.757l2.369-0.388 97.867-15.729c1.321-0.194 2.563 0.699 2.757 2.019s-0.699 2.563-2.019 2.757l-100.236 16.116zM479.91 188.455l14.214-2.291c0.544 8.66-1.36 16.156-5.359 22.797-3.069 5.049-7.34 9.709-12.7 13.981 1.825-11.263 1.981-23.884 3.844-34.526zM427.83 230.709c-6.447-2.407-11.962-5.438-16.467-9.321-5.865-5.049-10.059-11.573-12.234-19.963l14.214-2.291c5.087 9.516 9.165 21.438 14.486 31.573zM436.219 243.292c12.038 13.204 28.467 10.719 35.807-5.748 10.991-6.834 19.573-14.525 25.010-23.613 5.903-9.787 8.194-20.972 6.097-34.137-0.427-2.641-2.913-4.427-5.553-4l-14.99 2.407c0.738-1.942 1.632-3.728 2.679-5.321l-81.943 13.165c1.515 1.204 2.913 2.602 4.234 4.234l-15.030 2.407c-2.641 0.427-4.427 2.913-4 5.553 2.097 13.126 7.767 23.029 16.467 30.486 8.039 6.913 18.564 11.535 31.147 14.563zM449.463 256.962l14.331-2.291c1.321-0.194 2.563 0.699 2.797 2.019 0.194 1.321-0.699 2.563-2.019 2.757l-2.407 0.388c1.165 7.147 12.622 17.554 26.953 15.262l7.147-1.165c1.321-0.194 2.563 0.699 2.757 2.019s-0.699 2.563-2.019 2.757l-71.614 11.495c-1.321 0.194-2.563-0.699-2.757-1.981-0.234-1.321 0.699-2.563 1.981-2.797l7.147-1.165c14.331-2.291 21.942-15.767 20.816-22.914l-2.407 0.388c-1.321 0.194-2.563-0.699-2.757-2.019s0.699-2.563 2.019-2.757zM945.284 506.641c-7.147 28.195-31.963 160.199-29.476 161.908l-13.322 8.816 12.31-0.854-2.446 5.981-29.438 4.738c7.106 44.196 9.554 32.894-1.747 52.507l-13.36-26.214c4.116-9.010 10.681-55.419 14.291-71.38l33.089-5.281-0.582-3.495c5.515-2.913-0.971-50.797-8.582-53.477l-1.321-8.272-2.059 0.66c1.126-23.497 3.457-50.682-5.669-71.186 10.991 0.544 3.379 1.243 6.603-1.049-16.738-104.159 0.778-65.322-5.631-105.246-8.738 0.66-6.485 2.407-9.865-5.204 7.573-2.913 4.622-2.679 11.379 0.427-1.787-11.069-3.572-9.554-5.398-19.457l6.603-1.049c54.333 132.781 23.146 53.245 36.585 143.189 5.981-6.059 3.767 0.854 2.99-9.516 2.563 1.321 4.155 2.407 5.087 3.418zM505.074 828.398l9.165-1.475c-1.67-10.291-11.612-18.409-18.175-26.331l-23.146 3.728-6.292 9.244 19.457 17.748 18.951-3.028v0.116zM559.911 959.587l22.020-5.476-28.35-44.351c11.495 9.942 54.41 58.526 85.828 28.234-3.457-21.282 12.7 4.971 54.333-26.486l-0.893-5.593c24.351-3.922 26.137-5.593 48.933-20.894l-29.632-16.583c87.226 12.738 48.739-18.525 101.829-38.486l-92.236 14.835-7.884-30.448c-9.865 20.816-20.156 43.419-56.313 40.894l-0.194 0.272-35.573 5.71-10.953-68.235-29.787-5.981c-4.66 13.593-8.972 20.777-7.418 30.448l10.563-1.709 8.039 49.904-226.803 36.467c-41.904 12.389-72.623-2.757-82.877-43.419 2.446 15.379 3.922 29.243-4.932 43.535 24.582 19.301 95.071 42.448 123.809 51.574l9.244-11.418c11.379 9.204 36.041 25.322 52.195 18.603l-9.476-27.923c34.526 32.428 31.147 32.389 69.284 27.223l-1.165-7.106c27.147-4.35 16.778 9.981 38.486 6.447zM163.822 816.786l-2.174-13.632 118.372-19.029 4.544 28.35 13.126-20.855-31.613-42.292c-56.196 7.767-38.642-16.388-102.605-6.097-23.029-24.778-37.826-47.070-51.225-79.847 6.175-2.563 3.223-0.234 5.903-5.476-8.622 1.591-5.281 0.234-10.642 4-2.99-18.641-25.244-130.101-33.671-139.15-24.544 10.991 5.631 110.295 10.719 130.606 13.126-11.612-3.185 3.534 12.466 41.827-6.369 2.835-4.854 0.738-5.553 7.65 6.913-0.506 4.155-0.699 9.165 0.778 6.292 39.225 37.167 84.391 63.186 113.13zM428.994 810.844l-2.835-17.67 9.204-1.475-2.174-13.515-41.050 6.603 2.174 13.515 9.165-1.475 10.409 64.895-9.165 1.475 2.174 13.515 41.050-6.603-2.174-13.515-9.165 1.475-3.379-21.049 19.767 18.409-4.35 0.699 2.174 13.515 41.166-6.603-2.214-13.632-9.554 1.553-37.866-34.526 19.729-29.011 12.156-1.942-2.174-13.515-34.875 5.593 2.174 13.515 3.418-0.544-13.865 20.35zM112.209 910.226l-10.447-64.895-9.747 1.553-2.174-13.515 43.729-7.029 2.174 13.515-11.146 1.787 10.447 64.895 11.535-1.863c3.223-0.506 7.573-1.67 9.67-4.388 2.486-3.223 3.3-10.098 3.572-13.981l0.31-4.155 12-1.942 3.34 33.671-71.265 11.456-2.174-13.515 10.175-1.632zM194.463 830.417l-9.554 1.515-2.174-13.515 41.166-6.603 2.174 13.515-9.398 1.515 8.35 51.885c0.582 3.651 1.863 8 4.854 10.409 2.679 2.174 6.175 2.291 9.476 1.787 4.155-0.66 8-2.253 10.213-5.981 2.563-4.35 2.331-10.37 1.553-15.146l-7.612-47.302-9.321 1.515-2.174-13.515 32.738-5.243 2.174 13.515-9.321 1.515 7.65 47.652c1.398 8.816 1.088 18.331-4.272 25.826-5.321 7.495-14.097 10.835-22.875 12.234-8.078 1.321-16.272 0.66-23.341-3.806-6.913-4.388-10.602-11.184-11.884-19.147l-8.466-52.623zM364.799 881.060c-1.863 1.475-3.922 2.718-6.097 3.728-3.844 1.825-8.039 2.951-12.234 3.651-11.651 1.863-22.175-1.049-31.108-8.816-9.398-8.194-14.291-19.263-16.234-31.419-0.971-6.137-1.126-12.35-0.156-18.525 0.893-5.903 2.835-11.535 5.71-16.738 2.951-5.321 6.875-9.787 11.807-13.36 4.816-3.495 10.213-5.825 16.078-6.796 3.806-0.621 7.65-0.621 11.456 0.116 2.331 0.466 4.583 1.165 6.796 2.097l2.135-2.951 9.165-1.475 4.971 30.991-11.845 1.904-1.632-3.728c-1.863-4.272-4.583-8.7-8.582-11.301-3.34-2.174-6.913-2.718-10.835-2.097-5.593 0.893-8.932 3.767-10.642 9.165-2.757 8.66-1.049 22.642 0.349 31.419 0.816 5.126 1.825 10.874 3.495 15.806 0.893 2.641 2.135 5.438 3.922 7.573 1.515 1.825 3.379 3.107 5.631 3.962 2.291 0.854 4.583 1.049 6.991 0.66 4.35-0.699 8.039-2.486 10.912-5.865 3.3-3.922 4.777-9.204 5.398-14.176l0.506-3.922 11.456-1.863 5.204 32.235-9.903 1.591-2.757-1.942zM535.328 842.186l-4.583-28.622-27.223-32.817-11.107 1.787-2.174-13.515 43.419-6.991 2.174 13.515-6.564 1.049 14.679 17.982 7.457-21.554-8.66 1.398-2.174-13.515 35.845-5.748 2.174 13.515-11.495 1.863-13.437 39.379 4.583 28.622 10.563-1.709 2.174 13.515-44.001 7.068-2.174-13.515 10.563-1.709zM667.062 742.687l1.475-2.602 10.291-1.67 4.66 29.011-11.146 1.787-1.787-3.3c-1.981-3.651-4.66-7.34-8.35-9.437-3.262-1.825-6.757-2.135-10.37-1.553-3.146 0.506-5.865 1.747-7.961 4.234-1.67 2.019-2.446 4.078-2.019 6.679 0.272 1.747 1.049 2.951 2.563 3.884 2.757 1.67 7.573 2.369 10.719 2.679 1.321 0.116 2.602 0.272 3.884 0.388 6.292 0.66 16.078 1.787 21.71 4.816 3.767 2.019 6.875 4.894 9.244 8.428 2.446 3.69 3.884 7.845 4.583 12.156 1.437 8.972 0.234 17.787-5.166 25.322-5.438 7.534-13.437 11.418-22.447 12.893-6.097 0.971-12.038 0.388-17.748-1.709l-2.602 3.806-9.554 1.553-5.126-31.845 11.34-1.825 1.747 3.418c2.214 4.35 5.243 8.156 9.437 10.642 3.612 2.135 7.34 2.951 11.456 2.253 4.35-0.699 7.884-2.525 10.642-5.981 2.446-3.069 3.418-6.369 2.797-10.253-0.816-5.166-12.428-7.185-16.116-7.729-0.854-0.116-1.747-0.194-2.446-0.349-7.573-1.126-18.485-3.185-24.778-7.806-5.553-4.078-8.428-10.098-9.516-16.778-1.243-7.806 0.156-15.146 4.971-21.476 4.854-6.407 11.69-9.826 19.573-11.107 5.476-0.893 10.797-0.388 16.039 1.437zM745.082 808.476l-10.447-65.011c-2.797 0.582-5.941 1.67-7.573 4.078-2.331 3.379-2.913 10.525-3.069 14.448l-0.156 4.311-12.428 2.019-3.884-34.254 72.857-11.69 6.757 33.748-12.622 2.019-1.36-4.35c-1.204-3.844-3.457-9.747-6.875-12.272-2.446-1.825-5.903-2.019-8.932-1.709l10.409 65.011 10.098-1.632 2.174 13.515-43.030 6.913-2.174-13.515 10.291-1.67zM819.803 796.475l14.875-85.012 10.563-1.709 38.875 76.352 9.942-1.591 2.174 13.515-41.399 6.679-2.174-13.515 8.194-1.321-7.457-14.99-16.001 2.563-2.679 16.622 8.272-1.36 2.174 13.515-34.409 5.515-2.174-13.515 11.184-1.787zM925.826 779.425l-10.447-64.895-9.204 1.475-2.174-13.515 39.691-6.369c8-1.281 17.127-1.591 24.739 1.709 6.991 3.028 11.418 8.505 12.66 16.078 1.165 7.223-0.778 13.787-5.787 19.147-1.515 1.591-3.185 2.99-4.971 4.234 0.738 0.349 1.475 0.778 2.174 1.204 5.166 3.069 8.894 7.495 10.757 13.243 1.126 3.418 1.825 7.223 2.486 10.797 0.31 1.787 1.049 5.748 1.942 7.301 0.116 0.194 0.349 0.582 0.388 0.66 0.272 0.078 0.816 0 1.088-0.038 0.582-0.078 1.165-0.272 1.67-0.506 0.816-0.349 1.553-0.816 2.291-1.281l6.834-4.544 2.369 14.679-3.028 1.863c-2.019 1.243-4.155 2.369-6.331 3.262-2.097 0.854-4.234 1.475-6.447 1.825-6.641 1.088-12.738-0.66-17.282-5.748-4.816-5.398-7.301-13.904-8.777-21.049 0-0.116-0.038-0.234-0.078-0.31l-0.078-0.388c-0.544-2.602-1.825-7.806-4.039-9.554-1.398-1.088-2.951-1.787-4.699-2.174-1.981-0.466-4-0.466-5.981-0.116l-1.981 0.31 4.699 29.166 9.437-1.515 2.174 13.476-41.555 6.679-2.174-13.515 9.67-1.553zM839.766 762.688l6.991-1.126-5.087-10.175-1.904 11.301zM941.399 732.978l1.981-0.31c3.069-0.506 10.874-2.019 13.010-4.544 1.863-2.253 1.398-7.029 0.971-9.67-0.349-2.135-1.321-6.834-3.3-8.194-2.097-1.437-8.505-0.621-10.835-0.272l-5.476 0.893 3.572 22.098zM163.162 266.362s22.953-8.894 23.69-13.322 24.428-29.632 24.428-29.632l37.011-31.108 37.749-31.108 49.632-29.632s38.525-14.059 42.215-14.059 52.585-6.679 56.273-8.156 63.692-3.69 63.692-3.69l51.846 2.214 40.739 8.156 34.060 11.107 40.739 17.787 30.369 19.263 32.583 5.941 29.632 14.797 21.476 17.787 22.953 22.953 24.428 20.738 8.156 15.534 9.631 2.951-5.166-14.059-14.797-19.263-12.582-16.272-19.263-16.272-40.001-31.108-51.846-23.69-22.214-17.787-31.845-19.263-15.534 2.214-22.214-1.475-20.001-2.214-22.214-9.631h-22.214l-28.894-2.951h-48.117l-20.738 5.166-29.632-1.475-39.264 8.894-31.108 8.156-27.379 10.37-18.525 14.059-20.001 16.272-28.894 16.272-33.321 20.001-19.263 18.525-22.214 27.379-15.534 20.738 1.475 8.894z" fill="#d4237a" /></svg>