<?xml version="1.0" standalone="no"?><!DOCTYPE svg PUBLIC "-//W3C//DTD SVG 1.1//EN" "http://www.w3.org/Graphics/SVG/1.1/DTD/svg11.dtd"><svg class="icon" width="200px" height="200.00px" viewBox="0 0 1024 1024" version="1.1" xmlns="http://www.w3.org/2000/svg"><path d="M759.168 1024 264.832 1024c-29.248 0-52.992-23.68-52.992-52.992L211.84 52.992C211.84 23.744 235.584 0 264.832 0l494.336 0c29.248 0 52.992 23.68 52.992 52.992l0 918.08C812.16 1000.32 788.416 1024 759.168 1024zM512 971.072c19.52 0 35.328-15.808 35.328-35.328 0-19.52-15.808-35.328-35.328-35.328-19.52 0-35.328 15.808-35.328 35.328C476.672 955.264 492.48 971.072 512 971.072zM759.168 105.92l-17.664 0L282.496 105.92 264.832 105.92l0 741.504 17.664 0 459.008 0 17.664 0L759.168 105.92z" /></svg>