<?xml version="1.0" standalone="no"?><!DOCTYPE svg PUBLIC "-//W3C//DTD SVG 1.1//EN" "http://www.w3.org/Graphics/SVG/1.1/DTD/svg11.dtd"><svg class="icon" width="200px" height="200.00px" viewBox="0 0 1024 1024" version="1.1" xmlns="http://www.w3.org/2000/svg"><path d="M932.608 126.08l-121.28 0c-13.184 0-23.744 10.688-23.744 23.872s10.56 23.872 23.744 23.872l121.28 0 0 801.728L91.456 975.552 91.456 173.76l123.136 0c13.184 0 23.872-10.688 23.872-23.872S227.776 126.08 214.592 126.08L91.456 126.08c-26.304 0-47.68 21.376-47.68 47.68l0 801.728c0 26.24 21.376 47.616 47.68 47.616l841.216 0c26.24 0 47.616-21.376 47.616-47.616L980.288 173.76C980.224 147.456 958.848 126.08 932.608 126.08L932.608 126.08zM322.752 175.232l378.496 0c13.184 0 23.872-10.688 23.872-23.808s-10.688-23.872-23.872-23.872L628.16 127.552c0.32-3.2 0.832-6.4 0.832-9.664 0-64.512-52.48-116.992-116.992-116.992-64.448 0-116.992 52.48-116.992 116.992 0 3.328 0.512 6.464 0.896 9.664L322.752 127.552c-13.184 0-23.872 10.688-23.872 23.872S309.568 175.232 322.752 175.232L322.752 175.232zM442.688 117.888c0-38.208 31.104-69.312 69.312-69.312 38.272 0 69.248 31.104 69.248 69.312 0 3.392-0.768 6.464-1.216 9.664L444.032 127.552C443.52 124.352 442.688 121.28 442.688 117.888L442.688 117.888zM272.384 408.448l479.36 0c13.12 0 23.808-10.688 23.808-23.872s-10.688-23.808-23.808-23.808l-479.36 0c-13.248 0-23.872 10.688-23.872 23.808S259.136 408.448 272.384 408.448L272.384 408.448zM272.384 613.376l479.36 0c13.12 0 23.808-10.752 23.808-23.872s-10.688-23.872-23.808-23.872l-479.36 0c-13.248 0-23.872 10.752-23.872 23.872S259.136 613.376 272.384 613.376L272.384 613.376zM272.384 818.24l479.36 0c13.12 0 23.808-10.752 23.808-23.872s-10.688-23.872-23.808-23.872l-479.36 0c-13.248 0-23.872 10.752-23.872 23.872S259.136 818.24 272.384 818.24L272.384 818.24zM272.384 818.24" fill="#d81e06" /></svg>