<?xml version="1.0" standalone="no"?><!DOCTYPE svg PUBLIC "-//W3C//DTD SVG 1.1//EN" "http://www.w3.org/Graphics/SVG/1.1/DTD/svg11.dtd"><svg class="icon" width="200px" height="199.80px" viewBox="0 0 1025 1024" version="1.1" xmlns="http://www.w3.org/2000/svg"><path d="M460.128084 0C206.105437 0 0 206.207824 0 460.435246c0 254.227422 206.105437 460.435246 460.128084 460.435246 97.267842 0 187.266192-30.613773 261.701687-82.31931l146.925634 158.80255c35.528359 35.528359 93.172353 35.528359 128.598325 0 35.528359-35.733133 35.528359-93.274741 0-128.905487L838.653568 721.52261c51.193601-74.333108 81.6026-164.024297 81.6026-260.984977C920.256168 206.207824 714.253118 0 460.128084 0L460.128084 0zM461.766279 718.246219c-141.294338 0-255.968004-114.673666-255.968004-256.070391 0-141.396725 114.571279-255.968004 255.968004-255.968004 141.191951 0 255.865617 114.673666 255.865617 255.968004C717.83667 603.572553 603.265392 718.246219 461.766279 718.246219L461.766279 718.246219z" /></svg>