<?xml version="1.0" standalone="no"?><!DOCTYPE svg PUBLIC "-//W3C//DTD SVG 1.1//EN" "http://www.w3.org/Graphics/SVG/1.1/DTD/svg11.dtd"><svg class="icon" width="200px" height="200.00px" viewBox="0 0 1024 1024" version="1.1" xmlns="http://www.w3.org/2000/svg"><path d="M378.112 384.32l-19.2 0c-3.52 0-6.4 2.88-6.4 6.4l0 307.2c0 3.52 2.88 6.4 6.4 6.4l19.2 0c3.52 0 6.4-2.88 6.4-6.4l0-307.2C384.512 387.2 381.632 384.32 378.112 384.32z"  /><path d="M378.112 736.576l-19.2 0c-3.52 0-6.4 2.88-6.4 6.4L352.512 825.6c0 3.52 2.88 6.4 6.4 6.4l19.2 0c3.52 0 6.4-2.88 6.4-6.4l0-82.624C384.512 739.456 381.632 736.576 378.112 736.576z"  /><path d="M896.128 192l-192 0L704.128 32c0-17.664-14.336-32-32-32l-192 0c-17.664 0-32 14.336-32 32l0 63.68L175.872 95.68c-44.096 0-80 35.904-80 80L95.872 198.4l0 12.8 0 6.4c0 3.52 2.88 6.4 6.4 6.4l19.2 0c3.52 0 6.4-2.88 6.4-6.4L127.872 211.2 127.872 198.4 127.872 175.68c0-26.496 21.568-48 48-48l272.32 0L448.192 192l-192 0c-17.664 0-32 14.336-32 32l0 768c0 17.664 14.336 32 32 32l640 0c17.664 0 32-14.336 32-32l0-768C928.128 206.336 913.856 192 896.128 192zM480 38.4c0-3.52 2.88-6.4 6.4-6.4l9.728 0 160 0L665.6 32c3.52 0 6.4 2.88 6.4 6.4l0 9.216c0 0.128 0.128 0.256 0.128 0.384L672.128 192l-192 0L480.128 153.984C480.128 153.856 480 153.728 480 153.6L480 38.4zM896.128 976c0 0.128-0.128 0.256-0.128 0.384L896 985.6c0 3.52-2.88 6.4-6.4 6.4l-9.472 0-608 0L262.4 992c-3.52 0-6.4-2.88-6.4-6.4L256 230.4c0-3.52 2.88-6.4 6.4-6.4l9.728 0 608 0L889.6 224c3.52 0 6.4 2.88 6.4 6.4l0 9.216c0 0.128 0.128 0.256 0.128 0.384L896.128 976z"  /></svg>