<?xml version="1.0" standalone="no"?><!DOCTYPE svg PUBLIC "-//W3C//DTD SVG 1.1//EN" "http://www.w3.org/Graphics/SVG/1.1/DTD/svg11.dtd"><svg class="icon" width="200px" height="200.00px" viewBox="0 0 1024 1024" version="1.1" xmlns="http://www.w3.org/2000/svg"><path d="M825.456243 411.145458C841.936757 403.582284 857.807917 401.37644 873.06786 404.527919 888.328737 407.679402 901.299872 414.295982 911.982207 424.380535 922.664538 434.464125 930.60012 446.910853 935.788016 461.721666 940.976845 476.532482 942.197416 492.130693 939.450663 508.516291 936.70391 524.902846 929.378615 540.816585 917.475713 556.256547 905.572807 571.697467 888.023126 585.090789 864.827605 596.434592 848.956445 603.997766 834.306785 610.772591 820.877701 616.760021 807.448613 622.746497 795.240104 628.26111 784.253092 633.303867 784.863375 638.975767 785.321325 644.490383 785.626001 649.846751 785.931612 655.204082 786.083951 660.718694 786.083951 666.390594 786.083951 684.037362 784.558698 700.423922 781.506339 715.549311 778.453979 730.674696 774.486651 744.855409 769.603432 758.090486 786.083951 763.132281 803.481289 767.858545 821.793595 772.270236 839.495614 776.681931 853.382644 786.450948 863.453762 801.576337 873.525809 816.701727 879.935209 833.718391 882.681962 852.625367 885.428716 871.532343 884.666089 891.069424 880.393155 911.237566 876.120224 931.404751 868.490248 948.735988 857.50324 963.232231 846.515298 977.727517 832.17032 987.968393 814.468301 993.955828 796.766282 999.943262 775.707226 998.210232 751.29113 988.756746 684.755988 964.807012 634.244346 943.694193 599.755272 925.41732 565.267128 907.140448 544.970699 896.112177 538.866905 892.33059 535.814545 892.33059 533.067792 892.487877 530.626646 892.803408 528.184574 893.117981 525.437821 893.275267 522.385461 893.275267 515.67138 893.275267 509.414322 893.117981 503.615209 892.803408 497.817022 892.487877 491.559965 892.015059 484.845887 891.384955 470.195298 899.578233 452.798886 909.031723 432.654795 919.745417 414.952776 928.568803 392.673145 938.967925 365.814977 950.941835 338.956804 962.9167 307.215413 975.521669 270.590804 988.756746 246.173778 998.210232 225.114721 999.943262 207.412703 993.955828 189.710685 987.968393 175.365705 977.727517 164.378694 963.232231 153.390754 948.735988 145.760782 931.404751 141.487848 911.237566 137.214915 891.069424 136.604629 871.532343 139.656989 852.625367 142.708421 833.718391 149.271089 816.701727 159.342206 801.576337 169.414253 786.450948 183.301285 776.681931 201.003303 772.270236 213.822103 769.118757 226.335294 765.809988 238.543807 762.343932 250.752319 758.877876 262.655226 755.569107 274.252521 752.417624 269.369303 739.813614 265.706656 726.420292 263.265509 712.240542 260.823437 698.059829 259.602866 682.777154 259.602866 666.390594 259.602866 661.348798 259.755205 656.779821 260.060811 652.682703 260.365492 648.586543 260.823437 644.017566 261.434651 638.975767 233.965266 628.26111 199.477123 612.821148 157.969294 592.653005 134.77377 581.309202 117.224091 567.916843 105.321186 552.475918 93.418281 537.034998 86.092987 521.12126 83.346234 504.735662 80.599482 488.349106 81.820054 472.750895 87.008881 457.940079 92.196779 443.129266 100.132359 430.682538 110.814691 420.598948 121.497024 410.515354 134.315823 403.897815 149.271089 400.746332 164.225426 397.594853 179.944246 399.800697 196.424763 407.363871 200.697696 408.624079 204.818289 410.199822 208.785615 412.090135 212.753869 413.981409 216.874463 415.871721 221.147396 417.762996 232.744694 441.711768 248.157905 463.770227 267.386106 483.937411 286.613373 504.1046 308.588327 521.436791 333.31003 535.932076 358.031737 550.427361 384.889905 561.771164 413.884543 569.964442 442.879181 578.15772 473.552339 582.253879 505.904943 582.253879 537.036046 582.253879 566.79331 578.473251 595.17766 570.910077 623.562011 563.346903 649.809895 552.790491 673.921315 539.240845 698.031804 525.690237 719.702077 509.304639 738.930274 490.082132 758.157545 470.859624 773.876367 449.905046 786.083951 427.216482 792.798958 424.065004 799.360696 421.386338 805.770097 419.180491 812.179493 416.974647 818.741236 414.296941 825.456243 411.145458L825.456243 411.145458ZM511.398449 522.697003C475.994411 522.697003 442.726842 517.182386 411.595739 506.153157 380.464632 495.123927 353.148514 480.155824 329.647383 461.248848 306.147181 442.341872 287.68161 420.283417 274.252521 395.074433 260.823437 369.864491 254.10936 342.765195 254.10936 313.773666 254.10936 291.715211 258.229023 270.445101 266.470212 249.962384 274.710471 229.479666 286.155428 210.729977 300.806013 193.714273 290.428363 182.369512 282.188104 168.347046 276.08431 151.645916 269.979591 134.944786 267.232838 118.08541 267.843121 101.068748 268.453409 84.053044 273.03195 68.296592 281.577816 53.801307 290.123682 39.306023 303.552766 28.592325 321.865073 21.659256 338.346516 15.35725 354.064409 13.781509 369.019675 16.932991 383.974011 20.084474 397.250757 26.229193 408.848986 35.367149 420.447212 44.505106 430.06038 55.849867 437.691281 69.399515 445.321253 82.950121 450.356814 96.658015 452.798886 110.523195 471.111193 106.741608 490.64407 104.850335 511.398449 104.850335 527.26868 104.850335 542.529552 105.795971 557.179212 107.686285 571.828867 109.577558 586.17385 112.728082 600.213221 117.139773 600.213221 115.879564 600.36556 114.776641 600.671166 113.831005 600.976773 112.886327 601.129116 111.783404 601.129116 110.523195 602.959974 96.658015 607.843193 82.950121 615.778771 69.399515 623.714353 55.849867 633.48079 44.505106 645.079015 35.367149 656.676315 26.229193 669.953061 20.084474 684.908327 16.932991 699.863593 13.781509 715.581485 15.35725 732.062929 21.659256 750.375236 28.592325 763.80432 39.306023 772.350185 53.801307 780.896051 68.296592 785.321325 84.053044 785.626001 101.068748 785.931612 118.08541 783.032517 134.944786 776.927797 151.645916 770.824004 168.347046 762.888425 182.369512 753.121989 193.714273L743.965835 203.167762C740.913476 206.318285 738.166723 208.839662 735.725576 210.729977 757.6996 242.241923 768.687538 276.589822 768.687538 313.773666 768.687538 342.765195 761.972531 369.864491 748.543447 395.074433 735.114359 420.283417 716.649718 442.341872 693.148586 461.248848 669.648384 480.155824 642.332262 495.123927 611.201159 506.153157 580.070056 517.182386 546.802487 522.697003 511.398449 522.697003L511.398449 522.697003ZM511.398449 331.735966C505.29373 331.735966 498.731991 331.893252 491.712303 332.207825 484.692619 332.523356 478.283219 333.468996 472.484106 335.044735 466.685919 336.619516 461.955039 339.140895 458.292392 342.60695 454.629745 346.073965 452.798886 350.957515 452.798886 357.260481 452.798886 363.562488 453.867123 370.495554 456.003588 378.057769 458.140054 385.620943 461.649433 392.711299 466.532651 399.328838 471.415869 405.945418 477.520593 411.46003 484.844958 415.871721 492.170248 420.283417 501.020795 422.48926 511.398449 422.48926 520.554602 422.48926 528.94813 420.283417 536.578101 415.871721 544.208073 411.46003 550.465135 405.945418 555.348353 399.328838 560.231571 392.711299 564.046557 385.620943 566.79331 378.057769 569.540063 370.495554 570.913903 363.562488 570.913903 357.260481 570.913903 350.957515 568.929776 346.073965 564.962451 342.60695 560.994198 339.140895 555.958637 336.619516 549.853917 335.044735 543.750124 333.468996 537.340727 332.523356 530.626646 332.207825 523.911639 331.893252 517.502243 331.735966 511.398449 331.735966L511.398449 331.735966Z" fill="#1296db" /></svg>