<?xml version="1.0" standalone="no"?><!DOCTYPE svg PUBLIC "-//W3C//DTD SVG 1.1//EN" "http://www.w3.org/Graphics/SVG/1.1/DTD/svg11.dtd"><svg class="icon" width="200px" height="200.00px" viewBox="0 0 1024 1024" version="1.1" xmlns="http://www.w3.org/2000/svg"><path d="M502.988254 201.944362c-98.198509 0-190.519148 38.240953-259.95559 107.677395-69.436442 69.436442-107.677395 161.757081-107.677395 259.956613 0 98.197486 38.240953 190.520171 107.677395 259.95559 69.436442 69.436442 161.757081 107.677395 259.95559 107.677395 98.197486 0 190.519148-38.239929 259.954567-107.677395 69.437465-69.435419 107.678418-161.758104 107.678418-259.95559 0-98.198509-38.239929-190.520171-107.678418-259.956613C693.507402 240.185314 601.18574 201.944362 502.988254 201.944362zM502.988254 863.850533c-162.262594 0-294.273187-132.010593-294.273187-294.272163 0-162.262594 132.010593-294.27421 294.273187-294.27421 162.261571 0 294.272163 132.010593 294.272163 294.27421C797.261441 731.839941 665.250848 863.850533 502.988254 863.850533z"  /><path d="M436.297342 160.148443l133.381823 0c20.25737 0 36.679387-16.422018 36.679387-36.679387 0-20.258393-16.422018-36.680411-36.679387-36.680411L436.297342 86.788645c-20.25737 0-36.679387 16.422018-36.679387 36.680411C399.617955 143.726425 416.03895 160.148443 436.297342 160.148443z"  /><path d="M806.987966 305.872363 832.760956 280.098349 849.268932 296.606325 901.142369 244.73391 832.758909 176.35045 780.885472 228.222865 797.392424 244.73084 771.620457 270.50383Z"  /><path d="M527.997857 492.216421 527.997857 333.658196c0-13.811564-11.197016-25.00858-25.00858-25.00858-13.812587 0-25.009603 11.197016-25.009603 25.00858l0 158.557202c-21.240767 9.55461-36.037774 30.885428-36.037774 55.6873 0 24.798802 14.797008 46.131667 36.037774 55.685253l0 81.031525c0 13.811564 11.197016 25.00858 25.009603 25.00858 13.811564 0 25.00858-11.197016 25.00858-25.00858l0-81.031525c21.239743-9.553587 36.037774-30.886451 36.037774-55.685253C564.034609 523.100826 549.237601 501.771031 527.997857 492.216421z"  /></svg>