<?xml version="1.0" standalone="no"?><!DOCTYPE svg PUBLIC "-//W3C//DTD SVG 1.1//EN" "http://www.w3.org/Graphics/SVG/1.1/DTD/svg11.dtd"><svg class="icon" width="200px" height="200.00px" viewBox="0 0 1024 1024" version="1.1" xmlns="http://www.w3.org/2000/svg"><path d="M1019.199 547.642l-0.01-59.312c0-68.384-65.123-121.097-167.502-152.488 49.374-27.948 79.926-60.196 79.926-91.368l-0.012-59.309C931.602 70.604 748.856 0 514.302 0 279.745 0 99.531 70.647 99.531 185.208v16.644C37.111 233.249 0 276.166 0 328.135v59.267c0 48.758 52.833 91.808 132.058 122.441-56.814 30.914-90.255 72.114-90.255 121.457v59.269c0 10.318 2.381 20.376 6.862 30.12-16.063 20.645-24.777 43.686-24.777 68.851v59.267c0 96.321 206.102 170.394 414.774 170.394 208.664 0 417.315-88.897 417.315-170.394l-0.008-59.311c0-15.885-3.53-30.924-10.216-45.047 18.007-17.634 28.132-35.937 28.132-53.88l-0.005-21.237c86.461-33.033 145.319-78.406 145.319-121.69zM513.043 29.634c210.622 0 381.358 66.334 381.358 148.167 0 81.831-170.736 148.168-381.358 148.168-210.63 0-381.363-66.335-381.363-148.168 0-81.836 170.733-148.167 381.363-148.167zM32.148 320.727c0-31.236 24.903-60.207 67.383-84.098v7.846c0 96.32 206.097 170.394 414.771 170.394 91.802 0 183.593-17.211 257.624-43.425-53.303 56.854-193.644 97.452-358.413 97.452-210.631-0.002-381.365-66.338-381.365-148.169z m786.623 461.405c0 81.832-170.739 148.17-381.359 148.17-210.631 0-381.364-66.336-381.364-148.17 0-12.009 3.712-23.68 10.666-34.857 60.901 67.198 224.561 113.686 389.862 113.686 142.11 0 284.186-41.241 360.377-93.284 1.187 4.757 1.818 9.576 1.818 14.455zM455.315 772.06c-210.63 0-381.364-66.333-381.364-148.164 0-38.476 37.745-73.514 99.625-99.85a657.824 657.824 0 0 0 13.542 3.923v19.675c0 96.321 206.097 170.394 414.768 170.394 64.594 0 129.18-8.527 187.579-22.706-64.911 45.736-190.199 76.728-334.15 76.728z m145.316-142.925c-153.181 0-285.226-35.089-345.871-85.707 50.713 9.261 105.268 14.366 160.009 14.366 208.667 0 417.313-88.9 417.313-170.392l-0.005-24.186c91.121 27.073 149.914 69.739 149.914 117.751 0 81.833-170.738 148.168-381.36 148.168z" fill="#d4237a" /><path d="M515.57 245.7c-45.965 0-84.497-8.022-116.264-17.75l-28.917 15.078c32.447 10.7 81.485 19.207 129.26 20.913v26.69h43.795v-27.178c71.662-3.649 117.202-21.399 117.202-47.176 0-58.361-211.448-47.416-211.448-87.053 0-15.806 29.81-26.262 76.446-26.262 41.231 0 64.251 5.592 91.965 15.318l32.877-13.132c-27.043-10.218-57.279-18.484-107.045-20.427V57.728h-43.794v27.48c-65.691 3.404-110.333 20.667-110.333 44.986 0 53.013 211.501 43.285 211.501 87.544 0 17.02-29.139 27.962-85.245 27.962z" fill="#d4237a" /></svg>