<?xml version="1.0" standalone="no"?><!DOCTYPE svg PUBLIC "-//W3C//DTD SVG 1.1//EN" "http://www.w3.org/Graphics/SVG/1.1/DTD/svg11.dtd"><svg class="icon" width="200px" height="200.00px" viewBox="0 0 1024 1024" version="1.1" xmlns="http://www.w3.org/2000/svg"><path d="M512 101.3c226.4 0 410.7 184.2 410.7 410.7 0 226.4-184.2 410.7-410.7 410.7S101.3 738.5 101.3 512c0-226.4 184.2-410.7 410.7-410.7z m0-37.3C264.6 64 64 264.6 64 512s200.6 448 448 448 448-200.6 448-448S759.4 64 512 64m213.7 615.7c-3.2 0-6.5-1-9.2-3.2L502.8 507.9c-3.6-2.8-5.7-7.2-5.7-11.7V195.9c0-8.2 6.7-14.9 14.9-14.9s14.9 6.7 14.9 14.9v293L735 653c6.5 5.1 7.6 14.5 2.5 21-3 3.7-7.4 5.7-11.8 5.7m0 0" fill="#1296db" /></svg>