<?xml version="1.0" standalone="no"?><!DOCTYPE svg PUBLIC "-//W3C//DTD SVG 1.1//EN" "http://www.w3.org/Graphics/SVG/1.1/DTD/svg11.dtd"><svg class="icon" width="200px" height="200.00px" viewBox="0 0 1024 1024" version="1.1" xmlns="http://www.w3.org/2000/svg"><path d="M719.936 549.568c-65.28 0-118.4 53.12-118.4 118.432s53.12 118.432 118.4 118.432c65.312 0 118.432-53.12 118.432-118.432S785.248 549.568 719.936 549.568zM785.6 702.304l-82.72 0 0-104.448c0-9.44 7.648-17.056 17.056-17.056s17.056 7.616 17.056 17.056l0 70.304 48.608 0c9.408 0 17.056 7.616 17.056 17.056S795.008 702.304 785.6 702.304z" fill="#1afa29" /><path d="M512 0C229.216 0 0 229.248 0 512c0 282.784 229.216 512 512 512s512-229.216 512-512C1024 229.248 794.784 0 512 0zM551.36 820.576 299.104 820.576c-41.408 0-75.136-33.696-75.136-75.104L223.968 280.896c0-41.408 33.696-75.136 75.136-75.136l362.816 0c41.408 0 75.104 33.728 75.104 75.136l0 176.096c0 9.44-7.648 17.056-17.056 17.056s-17.056-7.616-17.056-17.056L702.912 280.896c0-22.592-18.368-40.992-40.96-40.992L299.104 239.904c-22.624 0-40.992 18.4-40.992 40.992l0 464.576c0 22.592 18.4 40.96 40.992 40.96l252.288 0c9.408 0 17.056 7.616 17.056 17.056S560.8 820.576 551.36 820.576zM328.16 586.4c-9.408 0-17.056-7.616-17.056-17.056s7.648-17.056 17.056-17.056l174.016 0c9.408 0 17.056 7.616 17.056 17.056s-7.648 17.056-17.056 17.056L328.16 586.4zM466.016 681.728c0 9.44-7.648 17.056-17.056 17.056l-120.768 0c-9.408 0-17.056-7.616-17.056-17.056s7.648-17.056 17.056-17.056l120.768 0C458.368 664.672 466.016 672.288 466.016 681.728zM328.16 474.048c-9.408 0-17.056-7.616-17.056-17.056s7.648-17.056 17.056-17.056l304.672 0c9.408 0 17.056 7.616 17.056 17.056s-7.648 17.056-17.056 17.056L328.16 474.048zM632.8 361.696l-304.672 0c-9.408 0-17.056-7.616-17.056-17.056s7.648-17.056 17.056-17.056l304.672 0c9.408 0 17.056 7.616 17.056 17.056S642.24 361.696 632.8 361.696zM719.936 820.576c-84.096 0-152.544-68.448-152.544-152.576s68.416-152.576 152.544-152.576c84.128 0 152.576 68.448 152.576 152.576S804.064 820.576 719.936 820.576z" fill="#1afa29" /></svg>