<?xml version="1.0" standalone="no"?><!DOCTYPE svg PUBLIC "-//W3C//DTD SVG 1.1//EN" "http://www.w3.org/Graphics/SVG/1.1/DTD/svg11.dtd"><svg class="icon" width="200px" height="200.00px" viewBox="0 0 1024 1024" version="1.1" xmlns="http://www.w3.org/2000/svg"><path d="M968.128 392.384a82.944 82.944 0 0 0-58.944-25.088h-0.064l-5.76 0.192c-14.592 0-49.472-3.456-59.648-35.52-9.408-30.016 11.264-67.136 11.2-67.136a83.84 83.84 0 0 0-23.04-116.032l-107.52-71.68c-37.056-24.832-90.368-15.68-117.824 26.432-0.256 0.576-24.96 58.752-74.816 60.096-53.568 0-75.712-66.624-77.312-70.528C433.344 53.824 380.608 37.76 341.056 59.072l-113.664 61.44c-40.512 21.888-55.68 72.704-31.616 116.544 12.672 15.04 45.44 64.832 29.824 95.424-20.864 40.96-96.768 28.288-108.8 27.2-45.568 0-83.072 37.12-83.648 82.816L32 571.776c-0.256 22.272 8.256 43.392 23.936 59.328 15.616 15.936 36.48 24.768 58.88 25.024 1.92-0.128 3.648-0.192 5.376-0.768 0.192 0 18.624-5.184 39.04-5.184 24.064 0 39.488 6.72 45.76 20.032 12.032 25.472-21.568 71.936-36.032 88.32A83.84 83.84 0 0 0 192 874.496l107.584 71.872c37.12 24.704 90.304 15.296 117.504-25.472 0.256-0.768 35.648-69.824 81.344-64.192 51.776 6.592 69.184 68.928 70.976 73.728a83.84 83.84 0 0 0 113.408 33.92l113.6-61.312c40.512-21.888 55.744-72.704 31.424-116.928-1.728-1.984-42.048-48.704-12.928-96.896 22.912-38.144 80.256-26.56 92.16-25.472 45.568 0 83.008-37.12 83.584-82.816l1.28-129.152c0.32-22.4-8.192-43.52-23.808-59.392z m-15.36 188.032c-0.32 24.96-20.736 45.248-42.24 45.696a164.48 164.48 0 0 0-32-3.008c-43.968 0-78.08 16.512-96.064 46.4-35.072 57.984-4.16 118.208 14.464 138.112a45.632 45.632 0 0 1-18.496 61.888l-113.536 61.376c-21.76 11.648-51.072 1.024-60.224-14.4-0.96-3.584-24-87.808-101.312-97.536a85.44 85.44 0 0 0-10.624-0.704c-68.224 0-108.288 82.752-108.544 83.84a47.168 47.168 0 0 1-63.36 12.672l-107.52-71.808c-20.864-13.952-26.432-42.304-14.144-61.184 6.72-7.424 65.216-75.008 40.384-127.744-8.96-19.072-30.208-41.792-80.128-41.792-20.672 0-39.232 4.032-46.4 5.824a45.632 45.632 0 0 1-43.008-45.952l1.216-129.216c0.32-24.96 20.8-45.248 42.816-45.568a230.4 230.4 0 0 0 38.208 3.072c53.312 0 90.432-17.536 107.328-50.752 30.208-59.2-31.936-133.888-32.512-133.888a45.696 45.696 0 0 1 18.368-61.824l113.664-61.376c21.824-11.776 50.88-1.408 60.48 15.232 1.28 3.84 30.592 93.76 115.008 93.76h0.064c72.32-1.92 105.664-80.128 105.344-80.192a46.784 46.784 0 0 1 63.296-12.672l107.456 71.68a46.08 46.08 0 0 1 11.904 64.384c-1.152 2.112-29.824 52.224-15.104 98.688 21.376 68.032 98.496 62.208 101.888 61.888a45.312 45.312 0 0 1 31.552 13.632 45.056 45.056 0 0 1 13.056 32.384l-1.28 129.088zM512 345.984a166.016 166.016 0 0 0-165.824 165.696A166.016 166.016 0 0 0 512 677.44a165.888 165.888 0 0 0 165.696-165.76A165.888 165.888 0 0 0 512 345.984z m0 293.44a127.936 127.936 0 0 1-127.808-127.744C384.192 441.344 441.472 384 512 384c70.4 0 127.68 57.344 127.68 127.68A127.872 127.872 0 0 1 512 639.424z" fill="#1296db" /></svg>