<?xml version="1.0" standalone="no"?><!DOCTYPE svg PUBLIC "-//W3C//DTD SVG 1.1//EN" "http://www.w3.org/Graphics/SVG/1.1/DTD/svg11.dtd"><svg class="icon" width="200px" height="200.00px" viewBox="0 0 1024 1024" version="1.1" xmlns="http://www.w3.org/2000/svg"><path d="M250.600615 538.470868a68.830343 68.830343 0 1 0 137.660686 0 68.830343 68.830343 0 0 0-137.660686 0zM468.186363 538.470868a68.830343 68.830343 0 1 0 137.660686 0 68.830343 68.830343 0 0 0-137.660686 0zM685.772111 538.470868a68.830343 68.830343 0 1 0 137.660686 0 68.830343 68.830343 0 0 0-137.660686 0z" fill="#d81e06" /><path d="M983.444494 313.183446a509.926203 509.926203 0 0 0-109.6546-162.650732A509.926203 509.926203 0 0 0 512.02666 0.700152a509.872345 509.872345 0 0 0-361.817093 149.832562A509.926203 509.926203 0 0 0 0.377005 512.349807a509.872345 509.872345 0 0 0 149.88642 361.817092 509.926203 509.926203 0 0 0 361.763235 149.832562 509.926203 509.926203 0 0 0 361.817092-149.832562 509.926203 509.926203 0 0 0 149.832562-361.817092 508.418183 508.418183 0 0 0-40.23182-199.166361zM926.355164 687.387847a448.258955 448.258955 0 0 1-96.405566 142.992614 448.312813 448.312813 0 0 1-317.976796 131.682463 448.312813 448.312813 0 0 1-318.030654-131.736321 448.258955 448.258955 0 0 1-131.736322-317.976796 448.312813 448.312813 0 0 1 131.736322-318.030654 448.258955 448.258955 0 0 1 318.030654-131.682464 448.258955 448.258955 0 0 1 318.030654 131.736322 448.258955 448.258955 0 0 1 131.682463 317.976796c0 60.751664-11.848729 119.618303-35.330755 175.03804z" fill="#d81e06" /></svg>