<?xml version="1.0" standalone="no"?><!DOCTYPE svg PUBLIC "-//W3C//DTD SVG 1.1//EN" "http://www.w3.org/Graphics/SVG/1.1/DTD/svg11.dtd"><svg class="icon" width="200px" height="200.00px" viewBox="0 0 1024 1024" version="1.1" xmlns="http://www.w3.org/2000/svg"><path d="M967.972571 254.244571c-16.603429-9.435429-27.794286-27.721143-27.940571-46.592-0.512-45.275429-16.091429-53.394286-26.770286-66.925714-10.678857-13.531429-59.172571-19.675429-75.410286-25.965714-16.310857-6.290286-32.402286-64.585143-52.370286-80.237714C764.708571 18.212571 715.483429 24.649143 696.758857 74.605714c-18.724571 49.956571 17.554286 183.588571 17.554286 183.588571C713.508571 278.089143 678.838857 264.192 678.838857 264.192c-72.996571-25.819429-128.731429-21.723429-128.731429-21.723429C441.929143 247.661714 371.492571 283.501714 326.144 332.726857 238.592 412.818286 227.986286 528.822857 231.277714 570.806857c5.778286 73.581714 36.864 126.976 27.136 140.214857C257.901714 721.92 207.725714 699.757714 134.070857 689.737143c-89.161143-12.214857-135.314286 27.794286-132.096 45.348571 3.218286 17.554286 39.131429 31.963429 55.734857 41.398857 16.603429 9.435429 27.794286 27.721143 28.013714 46.592 0.512 45.275429 16.091429 53.394286 26.770286 66.925714 10.678857 13.531429 59.172571 19.675429 75.410286 25.965714 16.310857 6.290286 32.402286 64.585143 52.370286 80.237714 20.772571 16.310857 69.924571 9.801143 88.649143-40.082286 18.724571-49.956571-17.554286-183.588571-17.554286-183.588571 0.877714-19.894857 35.474286-5.997714 35.474286-5.997714 72.996571 25.819429 128.731429 21.723429 128.731429 21.723429 108.251429-5.193143 178.688-41.033143 224.036571-90.331429 87.552-80.091429 98.157714-196.022857 94.866286-238.08-5.778286-73.581714-36.864-126.976-27.136-140.214857 0.512-10.898286 50.688 11.264 124.342857 21.284571 89.161143 12.214857 135.314286-27.794286 132.096-45.348571C1020.489143 278.016 984.576 263.606857 967.972571 254.244571L967.972571 254.244571z" fill="#d81e06" /></svg>